<svg width="1360" height="425" viewBox="0 0 1360 425" fill="none" xmlns="http://www.w3.org/2000/svg">
<path d="M294.25 18.1551V128.225C294.25 156.075 277.85 181.385 252.33 192.545C219.24 207.015 189 220.995 161.78 234.065C146.77 241.305 132.68 248.215 119.53 254.795C92.96 268.085 61.87 284.225 34.36 318.035C17.75 338.495 7.98997 358.555 2.33997 372.775V195.835C2.33997 181.735 9.49998 168.595 21.35 160.965L37.08 150.835L266.27 2.93509C278.35 -4.86491 294.25 3.79506 294.25 18.1551Z" fill="#FF7F36"/>
<path opacity="0.62" d="M159.44 382.865V234.055C144.43 241.295 130.34 248.205 117.19 254.785C90.62 268.075 59.53 284.215 32.02 318.025C15.41 338.485 5.65 358.545 0 372.765V382.865C0 405.775 18.57 424.355 41.49 424.355H117.95C140.87 424.355 159.44 405.775 159.44 382.865Z" fill="#FF7F36"/>
<path d="M306.86 209.735H294.73C294.72 216.775 293.89 252.275 265.12 281.045C246.82 299.345 221.54 310.665 193.62 310.665V322.785C249.46 322.785 294.73 368.055 294.73 423.895H306.85C306.85 368.055 352.12 322.785 407.96 322.785V310.665C352.19 310.665 306.96 265.495 306.86 209.735Z" fill="#FF7F36"/>
<path d="M530.07 153.135L627.88 347.385H571.11L545.12 289.935H472.28L446.29 347.385H442.53L530.07 153.135ZM543.75 286.515L508.87 209.915L473.99 286.515H543.75Z" fill="black"/>
<path d="M656.95 135.355H706.88V347.385H656.95V135.355Z" fill="black"/>
<path d="M739.38 277.275C739.38 237.605 772.55 205.115 813.25 204.095C845.4 204.095 871.04 220.505 871.04 241.375C871.04 253.345 864.2 265.315 848.47 265.315C836.16 265.315 826.24 255.395 826.24 248.215C826.24 248.215 837.18 245.475 837.18 229.405C837.18 216.065 828.97 207.865 815.63 207.865C796.48 207.865 788.61 228.385 788.61 257.105C788.61 303.955 808.1 328.235 835.12 328.235C854.27 328.235 870.69 313.185 877.87 291.645L881.63 292.325C874.45 325.495 851.88 350.805 815.28 350.805C773.57 350.805 739.38 317.975 739.38 277.275Z" fill="black"/>
<path d="M905.59 277.615C905.59 237.265 939.45 204.775 981.17 204.775C1022.89 204.775 1056.75 237.265 1056.75 277.615C1056.75 318.315 1022.89 350.805 981.17 350.805C939.44 350.805 905.59 318.315 905.59 277.615ZM1006.81 277.615C1006.81 237.945 998.95 207.855 981.16 207.855C962.35 207.855 955.51 237.945 955.51 277.615C955.51 317.285 962.35 347.385 981.16 347.385C1000.32 347.385 1006.81 317.295 1006.81 277.615Z" fill="black"/>
<path d="M1067.01 207.855H1118.99L1160.37 294.035L1199.7 207.855H1203.46L1139.17 350.805L1067.01 207.855Z" fill="black"/>
<path d="M1217.15 277.275C1217.15 236.925 1251.35 204.095 1293.07 204.095C1329.66 204.095 1355.31 224.615 1355.31 260.525H1266.39C1268.1 303.955 1286.91 328.235 1312.9 328.235C1332.05 328.235 1348.47 313.185 1355.65 291.645L1359.41 292.325C1352.23 325.495 1329.66 350.805 1293.06 350.805C1251.35 350.805 1217.15 317.975 1217.15 277.275ZM1309.48 257.095C1309.48 229.395 1304.35 207.855 1291.01 207.855C1277.67 207.855 1266.73 229.395 1266.39 257.095H1309.48Z" fill="black"/>
</svg>
