<svg width="418" height="895" viewBox="0 0 418 895" fill="none" xmlns="http://www.w3.org/2000/svg">
<path d="M304.25 18.1551V128.225C304.25 156.075 287.85 181.385 262.33 192.545C229.24 207.015 199 220.995 171.78 234.065C156.77 241.305 142.68 248.215 129.53 254.795C102.96 268.085 71.8698 284.225 44.3598 318.035C27.7498 338.495 17.9898 358.555 12.3398 372.775V195.835C12.3398 181.735 19.4999 168.595 31.3499 160.965L47.0798 150.835L276.27 2.93509C288.35 -4.86491 304.25 3.79506 304.25 18.1551Z" fill="#FF7F36"/>
<path opacity="0.62" d="M169.44 382.865V234.055C154.43 241.295 140.34 248.205 127.19 254.785C100.62 268.075 69.53 284.215 42.02 318.025C25.41 338.485 15.65 358.545 10 372.765V382.865C10 405.775 28.57 424.355 51.49 424.355H127.95C150.87 424.355 169.44 405.775 169.44 382.865Z" fill="#FF7F36"/>
<path d="M316.86 209.735H304.73C304.72 216.775 303.89 252.275 275.12 281.045C256.82 299.345 231.54 310.665 203.62 310.665V322.785C259.46 322.785 304.73 368.055 304.73 423.895H316.85C316.85 368.055 362.12 322.785 417.96 322.785V310.665C362.19 310.665 316.96 265.495 316.86 209.735Z" fill="#FF7F36"/>
<path d="M113.71 876.2V766.13C113.71 738.28 130.11 712.97 155.63 701.81C188.72 687.34 218.96 673.36 246.18 660.29C261.19 653.05 275.28 646.14 288.43 639.56C315 626.27 346.09 610.13 373.6 576.32C390.21 555.86 399.97 535.8 405.62 521.58V698.52C405.62 712.62 398.46 725.76 386.61 733.39L370.88 743.52L141.69 891.42C129.61 899.22 113.71 890.56 113.71 876.2Z" fill="#FF7F36"/>
<path opacity="0.62" d="M248.52 511.49V660.3C263.53 653.06 277.62 646.15 290.77 639.57C317.34 626.28 348.43 610.14 375.94 576.33C392.55 555.87 402.31 535.81 407.96 521.59V511.49C407.96 488.58 389.39 470 366.47 470H290.01C267.09 470 248.52 488.58 248.52 511.49Z" fill="#FF7F36"/>
<path d="M101.1 684.62H113.23C113.24 677.58 114.07 642.08 142.84 613.31C161.14 595.01 186.42 583.69 214.34 583.69V571.57C158.5 571.57 113.23 526.3 113.23 470.46H101.11C101.11 526.3 55.8398 571.57 -0.000183105 571.57V583.69C55.7698 583.69 101 628.86 101.1 684.62Z" fill="#FF7F36"/>
</svg>
