<svg width="408" height="425" viewBox="0 0 408 425" fill="none" xmlns="http://www.w3.org/2000/svg">
<path d="M294.25 18.1551V128.225C294.25 156.075 277.85 181.385 252.33 192.545C219.24 207.015 189 220.995 161.78 234.065C146.77 241.305 132.68 248.215 119.53 254.795C92.96 268.085 61.87 284.225 34.36 318.035C17.75 338.495 7.98997 358.555 2.33997 372.775V195.835C2.33997 181.735 9.49998 168.595 21.35 160.965L37.08 150.835L266.27 2.93509C278.35 -4.86491 294.25 3.79506 294.25 18.1551Z" fill="#FF7F36"/>
<path opacity="0.62" d="M159.44 382.865V234.055C144.43 241.295 130.34 248.205 117.19 254.785C90.62 268.075 59.53 284.215 32.02 318.025C15.41 338.485 5.65 358.545 0 372.765V382.865C0 405.775 18.57 424.355 41.49 424.355H117.95C140.87 424.355 159.44 405.775 159.44 382.865Z" fill="#FF7F36"/>
<path d="M306.86 209.735H294.73C294.72 216.775 293.89 252.275 265.12 281.045C246.82 299.345 221.54 310.665 193.62 310.665V322.785C249.46 322.785 294.73 368.055 294.73 423.895H306.85C306.85 368.055 352.12 322.785 407.96 322.785V310.665C352.19 310.665 306.96 265.495 306.86 209.735Z" fill="#FF7F36"/>
</svg>
