<svg xmlns="http://www.w3.org/2000/svg" version="1.1" xmlns:xlink="http://www.w3.org/1999/xlink" xmlns:svgjs="http://svgjs.com/svgjs" width="233" height="232"><svg width="233" height="232" viewBox="0 0 233 232" fill="none" xmlns="http://www.w3.org/2000/svg">
<ellipse cx="116.5" cy="115.626" rx="116.5" ry="115.626" fill="#F97B22"></ellipse>
<path d="M72.5596 187V177.25H54.0596C59.2262 165.25 63.8929 154.333 68.0596 144.5C72.2262 134.667 76.8096 123.75 81.8096 111.75H152.31C156.976 122.75 161.56 133.667 166.06 144.5C170.726 155.333 175.393 166.25 180.06 177.25H161.81V187H209.81V177.25H190.56C178.226 148.083 165.893 119.25 153.56 90.75C141.393 62.0833 129.226 33.1667 117.06 3.99999C104.893 33.1667 92.6429 62.0833 80.3096 90.75C67.9762 119.25 55.7262 148.083 43.5596 177.25H24.3096V187H72.5596ZM114.56 34C115.06 32.6667 115.476 31.5 115.81 30.5C116.31 29.5 116.726 28.25 117.06 26.75L119.31 34L148.06 102H86.0596C90.7262 90.8333 95.4762 79.5833 100.31 68.25C105.31 56.75 110.06 45.3333 114.56 34Z" fill="white"></path>
</svg><style>@media (prefers-color-scheme: light) { :root { filter: none; } }
</style></svg>