<svg width="1360" height="426" viewBox="0 0 1360 426" fill="none" xmlns="http://www.w3.org/2000/svg">
<path d="M294.54 18.98V129.05C294.54 156.9 278.14 182.21 252.62 193.37C219.53 207.84 189.29 221.82 162.07 234.89C147.06 242.13 132.97 249.04 119.82 255.62C93.25 268.91 62.16 285.05 34.65 318.86C18.04 339.32 8.28 359.38 2.63 373.6V196.66C2.63 182.56 9.79001 169.42 21.64 161.79L37.37 151.66L266.56 3.76004C278.64 -4.03996 294.54 4.62001 294.54 18.98Z" fill="#FF7F36"/>
<path opacity="0.62" d="M159.73 383.69V234.88C144.72 242.12 130.63 249.03 117.48 255.61C90.91 268.9 59.82 285.04 32.31 318.85C15.7 339.31 5.94004 359.37 0.290039 373.59V383.69C0.290039 406.6 18.86 425.18 41.78 425.18H118.24C141.16 425.18 159.73 406.6 159.73 383.69Z" fill="#FF7F36"/>
<path d="M307.15 210.56H295.02C295.01 217.6 294.18 253.1 265.41 281.87C247.11 300.17 221.83 311.49 193.91 311.49V323.61C249.75 323.61 295.02 368.88 295.02 424.72H307.14C307.14 368.88 352.41 323.61 408.25 323.61V311.49C352.48 311.49 307.25 266.32 307.15 210.56Z" fill="#FF7F36"/>
<path d="M530.36 153.96L628.17 348.21H571.4L545.41 290.76H472.57L446.58 348.21H442.82L530.36 153.96ZM544.04 287.34L509.16 210.74L474.28 287.34H544.04Z" fill="white"/>
<path d="M657.24 136.18H707.17V348.21H657.24V136.18Z" fill="white"/>
<path d="M739.67 278.1C739.67 238.43 772.84 205.94 813.54 204.92C845.69 204.92 871.33 221.33 871.33 242.2C871.33 254.17 864.49 266.14 848.76 266.14C836.45 266.14 826.53 256.22 826.53 249.04C826.53 249.04 837.47 246.3 837.47 230.23C837.47 216.89 829.26 208.69 815.92 208.69C796.77 208.69 788.9 229.21 788.9 257.93C788.9 304.78 808.39 329.06 835.41 329.06C854.56 329.06 870.98 314.01 878.16 292.47L881.92 293.15C874.74 326.32 852.17 351.63 815.57 351.63C773.86 351.63 739.67 318.8 739.67 278.1Z" fill="white"/>
<path d="M905.88 278.44C905.88 238.09 939.74 205.6 981.46 205.6C1023.18 205.6 1057.04 238.09 1057.04 278.44C1057.04 319.14 1023.18 351.63 981.46 351.63C939.73 351.63 905.88 319.14 905.88 278.44ZM1007.1 278.44C1007.1 238.77 999.24 208.68 981.45 208.68C962.64 208.68 955.8 238.77 955.8 278.44C955.8 318.11 962.64 348.21 981.45 348.21C1000.61 348.21 1007.1 318.12 1007.1 278.44Z" fill="white"/>
<path d="M1067.3 208.68H1119.28L1160.66 294.86L1199.99 208.68H1203.75L1139.46 351.63L1067.3 208.68Z" fill="white"/>
<path d="M1217.44 278.1C1217.44 237.75 1251.64 204.92 1293.36 204.92C1329.95 204.92 1355.6 225.44 1355.6 261.35H1266.68C1268.39 304.78 1287.2 329.06 1313.19 329.06C1332.34 329.06 1348.76 314.01 1355.94 292.47L1359.7 293.15C1352.52 326.32 1329.95 351.63 1293.35 351.63C1251.64 351.63 1217.44 318.8 1217.44 278.1ZM1309.77 257.92C1309.77 230.22 1304.64 208.68 1291.3 208.68C1277.96 208.68 1267.02 230.22 1266.68 257.92H1309.77Z" fill="white"/>
</svg>
